<svg width="408" height="74" viewBox="0 0 408 74" fill="none" xmlns="http://www.w3.org/2000/svg">
<path d="M1.5 32C1.5 14.8792 15.3792 1 32.5 1H406.5V42C406.5 59.1208 392.621 73 375.5 73H1.5V32Z" stroke="#12F7D6" stroke-width="2"/>
<path d="M50.3142 49.384C48.3729 49.384 46.7409 49.0427 45.4183 48.36C44.0956 47.6773 43.0076 46.7707 42.1543 45.64L44.4583 43.432C45.3116 44.456 46.2183 45.2133 47.1783 45.704C48.1383 46.1733 49.2263 46.408 50.4423 46.408C51.8503 46.408 52.9276 46.088 53.6743 45.448C54.4423 44.808 54.8263 43.8907 54.8263 42.696C54.8263 41.736 54.5489 41 53.9943 40.488C53.4396 39.9547 52.4903 39.5707 51.1463 39.336L48.7143 38.952C47.6476 38.7813 46.7516 38.504 46.0263 38.12C45.3009 37.7147 44.7143 37.2453 44.2663 36.712C43.8183 36.1573 43.4876 35.5493 43.2743 34.888C43.0823 34.2053 42.9863 33.4907 42.9863 32.744C42.9863 30.632 43.6689 29.032 45.0343 27.944C46.3996 26.8347 48.2769 26.28 50.6663 26.28C52.4369 26.28 53.9409 26.568 55.1783 27.144C56.4369 27.6987 57.4502 28.488 58.2183 29.512L55.9783 31.752C55.3596 31.0053 54.6236 30.408 53.7703 29.96C52.9383 29.4907 51.9036 29.256 50.6663 29.256C49.3436 29.256 48.3303 29.544 47.6263 30.12C46.9436 30.6747 46.6023 31.496 46.6023 32.584C46.6023 33.5013 46.8689 34.2267 47.4023 34.76C47.9569 35.272 48.9276 35.6453 50.3142 35.88L52.6823 36.296C54.6876 36.6587 56.1489 37.3947 57.0662 38.504C57.9836 39.592 58.4423 40.9253 58.4423 42.504C58.4423 43.528 58.2609 44.4667 57.8983 45.32C57.5569 46.1733 57.0343 46.8987 56.3303 47.496C55.6476 48.0933 54.7943 48.5627 53.7703 48.904C52.7676 49.224 51.6156 49.384 50.3142 49.384ZM70.0458 49.384C68.7871 49.384 67.6564 49.1813 66.6538 48.776C65.6511 48.3707 64.8084 47.7947 64.1258 47.048C63.4431 46.3013 62.9204 45.4053 62.5578 44.36C62.1951 43.2933 62.0138 42.0987 62.0138 40.776C62.0138 39.4533 62.1951 38.2587 62.5578 37.192C62.9418 36.1253 63.4644 35.2187 64.1258 34.472C64.8084 33.704 65.6298 33.1173 66.5898 32.712C67.5498 32.3067 68.6164 32.104 69.7898 32.104C70.9418 32.104 71.9871 32.3067 72.9258 32.712C73.8644 33.096 74.6644 33.6507 75.3258 34.376C75.9871 35.1013 76.4884 35.9653 76.8298 36.968C77.1924 37.9707 77.3738 39.08 77.3738 40.296V41.608H65.5338V42.152C65.5338 43.4533 65.9391 44.52 66.7498 45.352C67.5604 46.1627 68.6804 46.568 70.1098 46.568C71.1764 46.568 72.0831 46.344 72.8298 45.896C73.5978 45.4267 74.2164 44.808 74.6858 44.04L76.8618 45.96C76.3071 46.92 75.4538 47.7307 74.3018 48.392C73.1711 49.0533 71.7524 49.384 70.0458 49.384ZM69.7898 34.76C69.1711 34.76 68.5951 34.8667 68.0618 35.08C67.5498 35.2933 67.1018 35.6027 66.7178 36.008C66.3551 36.392 66.0671 36.8507 65.8538 37.384C65.6404 37.9173 65.5338 38.504 65.5338 39.144V39.368H73.8218V39.048C73.8218 37.7467 73.4484 36.712 72.7018 35.944C71.9764 35.1547 71.0058 34.76 69.7898 34.76ZM81.9693 49V32.488H85.4573V35.304H85.6173C85.7879 34.8773 86.0013 34.472 86.2573 34.088C86.5346 33.6827 86.8653 33.3413 87.2493 33.064C87.6333 32.7653 88.0813 32.5307 88.5933 32.36C89.1053 32.1893 89.7026 32.104 90.3853 32.104C92.0493 32.104 93.3933 32.648 94.4173 33.736C95.4413 34.824 95.9533 36.3707 95.9533 38.376V49H92.4653V38.888C92.4653 36.264 91.3239 34.952 89.0413 34.952C88.5933 34.952 88.1559 35.016 87.7292 35.144C87.3026 35.2507 86.9186 35.4213 86.5773 35.656C86.2359 35.8907 85.9586 36.1893 85.7453 36.552C85.5533 36.9147 85.4573 37.3307 85.4573 37.8V49H81.9693ZM111.653 46.184H111.461C110.97 47.1867 110.319 47.976 109.509 48.552C108.698 49.1067 107.685 49.384 106.469 49.384C104.527 49.384 102.981 48.6587 101.829 47.208C100.677 45.7573 100.101 43.6027 100.101 40.744C100.101 37.8853 100.677 35.7307 101.829 34.28C102.981 32.8293 104.527 32.104 106.469 32.104C107.685 32.104 108.698 32.392 109.509 32.968C110.319 33.5227 110.97 34.3013 111.461 35.304H111.653V25.32H115.141V49H111.653V46.184ZM107.909 46.536C108.421 46.536 108.901 46.472 109.349 46.344C109.797 46.216 110.191 46.024 110.533 45.768C110.874 45.512 111.141 45.2027 111.333 44.84C111.546 44.456 111.653 44.008 111.653 43.496V37.992C111.653 37.48 111.546 37.0427 111.333 36.68C111.141 36.296 110.874 35.976 110.533 35.72C110.191 35.464 109.797 35.272 109.349 35.144C108.901 35.016 108.421 34.952 107.909 34.952C106.586 34.952 105.562 35.3573 104.837 36.168C104.133 36.9787 103.781 38.056 103.781 39.4V42.088C103.781 43.432 104.133 44.5093 104.837 45.32C105.562 46.1307 106.586 46.536 107.909 46.536ZM151.084 38.312L151.18 31.592H150.924L146.444 43.08L141.964 31.592H141.708L141.804 38.312V49H138.636V26.664H143.02L146.444 35.528H146.668L150.124 26.664H154.252V49H151.084V38.312ZM165.983 49.384C164.725 49.384 163.594 49.1813 162.591 48.776C161.589 48.3707 160.746 47.7947 160.063 47.048C159.381 46.3013 158.858 45.4053 158.495 44.36C158.133 43.2933 157.951 42.0987 157.951 40.776C157.951 39.4533 158.133 38.2587 158.495 37.192C158.879 36.1253 159.402 35.2187 160.063 34.472C160.746 33.704 161.567 33.1173 162.527 32.712C163.487 32.3067 164.554 32.104 165.727 32.104C166.879 32.104 167.925 32.3067 168.863 32.712C169.802 33.096 170.602 33.6507 171.263 34.376C171.925 35.1013 172.426 35.9653 172.767 36.968C173.13 37.9707 173.311 39.08 173.311 40.296V41.608H161.471V42.152C161.471 43.4533 161.877 44.52 162.687 45.352C163.498 46.1627 164.618 46.568 166.047 46.568C167.114 46.568 168.021 46.344 168.767 45.896C169.535 45.4267 170.154 44.808 170.623 44.04L172.799 45.96C172.245 46.92 171.391 47.7307 170.239 48.392C169.109 49.0533 167.69 49.384 165.983 49.384ZM165.727 34.76C165.109 34.76 164.533 34.8667 163.999 35.08C163.487 35.2933 163.039 35.6027 162.655 36.008C162.293 36.392 162.005 36.8507 161.791 37.384C161.578 37.9173 161.471 38.504 161.471 39.144V39.368H169.759V39.048C169.759 37.7467 169.386 36.712 168.639 35.944C167.914 35.1547 166.943 34.76 165.727 34.76ZM209.19 49L207.494 43.048H200.39L198.694 49H195.046L201.574 26.664H206.47L212.998 49H209.19ZM204.07 30.28H203.814L201.062 40.072H206.822L204.07 30.28ZM247.021 38.312L247.117 31.592H246.861L242.381 43.08L237.901 31.592H237.645L237.741 38.312V49H234.573V26.664H238.957L242.381 35.528H242.605L246.061 26.664H250.189V49H247.021V38.312ZM261.921 49.384C260.662 49.384 259.531 49.1813 258.529 48.776C257.526 48.3707 256.683 47.7947 256.001 47.048C255.318 46.3013 254.795 45.4053 254.433 44.36C254.07 43.2933 253.889 42.0987 253.889 40.776C253.889 39.4533 254.07 38.2587 254.433 37.192C254.817 36.1253 255.339 35.2187 256.001 34.472C256.683 33.704 257.505 33.1173 258.465 32.712C259.425 32.3067 260.491 32.104 261.665 32.104C262.817 32.104 263.862 32.3067 264.801 32.712C265.739 33.096 266.539 33.6507 267.201 34.376C267.862 35.1013 268.363 35.9653 268.705 36.968C269.067 37.9707 269.249 39.08 269.249 40.296V41.608H257.409V42.152C257.409 43.4533 257.814 44.52 258.625 45.352C259.435 46.1627 260.555 46.568 261.985 46.568C263.051 46.568 263.958 46.344 264.705 45.896C265.473 45.4267 266.091 44.808 266.561 44.04L268.737 45.96C268.182 46.92 267.329 47.7307 266.177 48.392C265.046 49.0533 263.627 49.384 261.921 49.384ZM261.665 34.76C261.046 34.76 260.47 34.8667 259.937 35.08C259.425 35.2933 258.977 35.6027 258.593 36.008C258.23 36.392 257.942 36.8507 257.729 37.384C257.515 37.9173 257.409 38.504 257.409 39.144V39.368H265.697V39.048C265.697 37.7467 265.323 36.712 264.577 35.944C263.851 35.1547 262.881 34.76 261.665 34.76ZM280.788 49.384C278.996 49.384 277.45 49.096 276.148 48.52C274.868 47.944 273.834 47.176 273.044 46.216L275.188 44.296C275.914 45.0853 276.724 45.6933 277.62 46.12C278.538 46.5253 279.615 46.728 280.852 46.728C281.983 46.728 282.89 46.536 283.572 46.152C284.276 45.768 284.628 45.1707 284.628 44.36C284.628 44.0187 284.564 43.7307 284.436 43.496C284.308 43.2613 284.127 43.0693 283.892 42.92C283.658 42.7707 283.38 42.6533 283.06 42.568C282.762 42.4827 282.442 42.4187 282.1 42.376L279.476 41.96C278.836 41.8747 278.186 41.736 277.524 41.544C276.863 41.352 276.266 41.0853 275.732 40.744C275.22 40.3813 274.794 39.9227 274.452 39.368C274.132 38.8133 273.972 38.1093 273.972 37.256C273.972 35.5707 274.612 34.2907 275.892 33.416C277.194 32.5413 278.9 32.104 281.012 32.104C282.548 32.104 283.871 32.3387 284.98 32.808C286.111 33.256 287.05 33.8853 287.796 34.696L285.844 36.744C285.418 36.2533 284.81 35.8053 284.02 35.4C283.231 34.9733 282.186 34.76 280.884 34.76C278.559 34.76 277.396 35.496 277.396 36.968C277.396 37.672 277.642 38.1627 278.132 38.44C278.644 38.696 279.242 38.8667 279.924 38.952L282.548 39.368C283.21 39.4747 283.86 39.6133 284.5 39.784C285.162 39.9547 285.748 40.2213 286.26 40.584C286.794 40.9253 287.22 41.3733 287.54 41.928C287.882 42.4827 288.052 43.1867 288.052 44.04C288.052 45.704 287.402 47.016 286.1 47.976C284.82 48.9147 283.05 49.384 280.788 49.384ZM299.976 49.384C298.184 49.384 296.637 49.096 295.336 48.52C294.056 47.944 293.021 47.176 292.232 46.216L294.376 44.296C295.101 45.0853 295.912 45.6933 296.808 46.12C297.725 46.5253 298.802 46.728 300.04 46.728C301.17 46.728 302.077 46.536 302.76 46.152C303.464 45.768 303.816 45.1707 303.816 44.36C303.816 44.0187 303.752 43.7307 303.624 43.496C303.496 43.2613 303.314 43.0693 303.08 42.92C302.845 42.7707 302.568 42.6533 302.248 42.568C301.949 42.4827 301.629 42.4187 301.288 42.376L298.664 41.96C298.024 41.8747 297.373 41.736 296.712 41.544C296.05 41.352 295.453 41.0853 294.92 40.744C294.408 40.3813 293.981 39.9227 293.64 39.368C293.32 38.8133 293.16 38.1093 293.16 37.256C293.16 35.5707 293.8 34.2907 295.08 33.416C296.381 32.5413 298.088 32.104 300.2 32.104C301.736 32.104 303.058 32.3387 304.168 32.808C305.298 33.256 306.237 33.8853 306.984 34.696L305.032 36.744C304.605 36.2533 303.997 35.8053 303.208 35.4C302.418 34.9733 301.373 34.76 300.072 34.76C297.746 34.76 296.584 35.496 296.584 36.968C296.584 37.672 296.829 38.1627 297.32 38.44C297.832 38.696 298.429 38.8667 299.112 38.952L301.736 39.368C302.397 39.4747 303.048 39.6133 303.688 39.784C304.349 39.9547 304.936 40.2213 305.448 40.584C305.981 40.9253 306.408 41.3733 306.728 41.928C307.069 42.4827 307.24 43.1867 307.24 44.04C307.24 45.704 306.589 47.016 305.288 47.976C304.008 48.9147 302.237 49.384 299.976 49.384ZM325.275 49C324.273 49 323.515 48.744 323.003 48.232C322.513 47.72 322.214 47.048 322.107 46.216H321.947C321.627 47.2187 321.041 47.9973 320.187 48.552C319.355 49.1067 318.289 49.384 316.987 49.384C315.302 49.384 313.958 48.9467 312.955 48.072C311.953 47.176 311.451 45.9493 311.451 44.392C311.451 42.792 312.038 41.576 313.211 40.744C314.406 39.8907 316.23 39.464 318.683 39.464H321.851V38.184C321.851 35.944 320.667 34.824 318.299 34.824C317.233 34.824 316.369 35.0373 315.707 35.464C315.046 35.8693 314.491 36.4133 314.043 37.096L311.963 35.4C312.433 34.504 313.222 33.736 314.331 33.096C315.441 32.4347 316.87 32.104 318.619 32.104C320.71 32.104 322.353 32.6053 323.547 33.608C324.742 34.6107 325.339 36.0613 325.339 37.96V46.248H327.419V49H325.275ZM317.979 46.824C319.11 46.824 320.038 46.568 320.763 46.056C321.489 45.544 321.851 44.8827 321.851 44.072V41.672H318.747C316.23 41.672 314.971 42.4293 314.971 43.944V44.584C314.971 45.3307 315.238 45.896 315.771 46.28C316.305 46.6427 317.041 46.824 317.979 46.824ZM346.959 50.792C346.959 52.4987 346.244 53.7573 344.815 54.568C343.385 55.3787 341.209 55.784 338.287 55.784C336.857 55.784 335.652 55.688 334.671 55.496C333.711 55.3253 332.921 55.0693 332.303 54.728C331.705 54.3867 331.268 53.9707 330.991 53.48C330.735 52.9893 330.607 52.4347 330.607 51.816C330.607 50.92 330.852 50.216 331.343 49.704C331.855 49.2133 332.569 48.8507 333.487 48.616V48.296C332.932 48.0827 332.484 47.784 332.143 47.4C331.823 47.016 331.663 46.5147 331.663 45.896C331.663 45.0853 331.94 44.4773 332.495 44.072C333.049 43.6453 333.764 43.3253 334.639 43.112V42.952C333.636 42.4827 332.857 41.8213 332.303 40.968C331.748 40.1147 331.471 39.0907 331.471 37.896C331.471 37.0213 331.631 36.232 331.951 35.528C332.271 34.8027 332.719 34.1947 333.295 33.704C333.892 33.192 334.596 32.7973 335.407 32.52C336.239 32.2427 337.167 32.104 338.191 32.104C339.343 32.104 340.377 32.2853 341.295 32.648V32.104C341.295 31.464 341.476 30.9307 341.839 30.504C342.201 30.0773 342.756 29.864 343.503 29.864H346.511V32.616H342.671V33.384C343.396 33.8747 343.951 34.504 344.335 35.272C344.719 36.0187 344.911 36.8933 344.911 37.896C344.911 38.7707 344.751 39.5707 344.431 40.296C344.111 41 343.652 41.608 343.055 42.12C342.479 42.6107 341.775 42.9947 340.943 43.272C340.132 43.528 339.215 43.656 338.191 43.656C337.465 43.656 336.783 43.592 336.143 43.464C335.759 43.5707 335.375 43.752 334.991 44.008C334.607 44.264 334.415 44.616 334.415 45.064C334.415 45.576 334.66 45.896 335.151 46.024C335.641 46.152 336.249 46.216 336.975 46.216H340.687C342.905 46.216 344.505 46.6427 345.487 47.496C346.468 48.328 346.959 49.4267 346.959 50.792ZM343.695 51.016C343.695 50.4613 343.471 50.0133 343.023 49.672C342.575 49.352 341.764 49.192 340.591 49.192H334.863C334.052 49.576 333.647 50.1947 333.647 51.048C333.647 51.6667 333.903 52.2 334.415 52.648C334.948 53.096 335.823 53.32 337.039 53.32H339.631C340.953 53.32 341.956 53.1173 342.639 52.712C343.343 52.328 343.695 51.7627 343.695 51.016ZM338.191 41.256C339.321 41.256 340.153 40.9893 340.687 40.456C341.22 39.9227 341.487 39.208 341.487 38.312V37.448C341.487 36.552 341.22 35.8373 340.687 35.304C340.153 34.7707 339.321 34.504 338.191 34.504C337.06 34.504 336.228 34.7707 335.695 35.304C335.161 35.8373 334.895 36.552 334.895 37.448V38.312C334.895 39.208 335.161 39.9227 335.695 40.456C336.228 40.9893 337.06 41.256 338.191 41.256ZM357.858 49.384C356.6 49.384 355.469 49.1813 354.466 48.776C353.464 48.3707 352.621 47.7947 351.938 47.048C351.256 46.3013 350.733 45.4053 350.37 44.36C350.008 43.2933 349.826 42.0987 349.826 40.776C349.826 39.4533 350.008 38.2587 350.37 37.192C350.754 36.1253 351.277 35.2187 351.938 34.472C352.621 33.704 353.442 33.1173 354.402 32.712C355.362 32.3067 356.429 32.104 357.602 32.104C358.754 32.104 359.8 32.3067 360.738 32.712C361.677 33.096 362.477 33.6507 363.138 34.376C363.8 35.1013 364.301 35.9653 364.642 36.968C365.005 37.9707 365.186 39.08 365.186 40.296V41.608H353.346V42.152C353.346 43.4533 353.752 44.52 354.562 45.352C355.373 46.1627 356.493 46.568 357.922 46.568C358.989 46.568 359.896 46.344 360.642 45.896C361.41 45.4267 362.029 44.808 362.498 44.04L364.674 45.96C364.12 46.92 363.266 47.7307 362.114 48.392C360.984 49.0533 359.565 49.384 357.858 49.384ZM357.602 34.76C356.984 34.76 356.408 34.8667 355.874 35.08C355.362 35.2933 354.914 35.6027 354.53 36.008C354.168 36.392 353.88 36.8507 353.666 37.384C353.453 37.9173 353.346 38.504 353.346 39.144V39.368H361.634V39.048C361.634 37.7467 361.261 36.712 360.514 35.944C359.789 35.1547 358.818 34.76 357.602 34.76Z" fill="#12F7D6"/>
</svg>
